<?xml version="1.0" encoding="UTF-8" standalone="no"?>
<!DOCTYPE svg PUBLIC "-//W3C//DTD SVG 1.1//EN" "http://www.w3.org/Graphics/SVG/1.1/DTD/svg11.dtd">
<svg width="100%" height="100%" viewBox="0 0 62 62" version="1.1" xmlns="http://www.w3.org/2000/svg" xmlns:xlink="http://www.w3.org/1999/xlink" xml:space="preserve" xmlns:serif="http://www.serif.com/" style="fill-rule:evenodd;clip-rule:evenodd;stroke-linejoin:round;stroke-miterlimit:2;">
    <g transform="matrix(0.24,0,0,0.24,0,0)">
        <g transform="matrix(1.0532,0,0,1.0532,135.25,-0.021153)">
            <path d="M114.651,11.414L114.651,102.565C114.651,108.853 109.545,113.959 103.257,113.959L12.106,113.959C5.818,113.959 0.712,108.853 0.712,102.565L0.712,11.414C0.712,5.125 5.818,0.02 12.106,0.02L103.257,0.02C109.545,0.02 114.651,5.125 114.651,11.414Z" style="fill:rgb(195,129,167);"/>
        </g>
        <g transform="matrix(1.0532,0,0,1.0532,135.25,135.979)">
            <path d="M114.651,11.414L114.651,102.565C114.651,108.853 109.545,113.959 103.257,113.959L12.106,113.959C5.818,113.959 0.712,108.853 0.712,102.565L0.712,11.414C0.712,5.125 5.818,0.02 12.106,0.02L103.257,0.02C109.545,0.02 114.651,5.125 114.651,11.414Z" style="fill:rgb(225,109,80);"/>
        </g>
        <g transform="matrix(1.0532,0,0,1.0532,-0.749981,135.979)">
            <path d="M114.651,11.414L114.651,102.565C114.651,108.853 109.545,113.959 103.257,113.959L12.106,113.959C5.818,113.959 0.712,108.853 0.712,102.565L0.712,11.414C0.712,5.125 5.818,0.02 12.106,0.02L103.257,0.02C109.545,0.02 114.651,5.125 114.651,11.414Z" style="fill:rgb(109,115,141);"/>
        </g>
        <g transform="matrix(1.0532,0,0,1.0532,-0.749981,-0.021153)">
            <path d="M114.651,11.414L114.651,102.565C114.651,108.853 109.545,113.959 103.257,113.959L12.106,113.959C5.818,113.959 0.712,108.853 0.712,102.565L0.712,11.414C0.712,5.125 5.818,0.02 12.106,0.02L103.257,0.02C109.545,0.02 114.651,5.125 114.651,11.414Z" style="fill:rgb(173,163,61);"/>
        </g>
    </g>
</svg>
